<svg width="646" height="631" viewBox="0 0 646 631" fill="none" xmlns="http://www.w3.org/2000/svg">
<path d="M0 315.167C0 489.229 141.105 630.333 315.167 630.333H330.833C504.895 630.333 646 489.229 646 315.167V315.167C646 141.105 504.895 -2.02656e-06 330.833 -2.02656e-06H315.167C141.105 -2.02656e-06 0 141.105 0 315.167V315.167Z" fill="#FFD684"/>
<path d="M330.267 554.589C246.386 554.589 178.388 547.281 178.388 538.265C178.388 529.25 246.386 521.941 330.267 521.941C414.149 521.941 482.147 529.25 482.147 538.265C482.147 547.281 414.149 554.589 330.267 554.589Z" fill="#DAA676"/>
<path d="M123.172 442.486C123.172 442.486 114.443 469.564 179.435 430.764C244.427 391.962 406.647 362.306 483.389 371.775C560.13 381.243 505.952 203.253 448.999 174.68C392.044 146.105 213.905 269.488 123.172 442.486Z" fill="#F7AF41"/>
<path d="M205.215 414.693C206.765 412.456 208.761 410.379 211.279 408.521C223.592 399.433 244.186 393.374 258.713 393.374C261.519 393.374 264.098 393.601 266.346 394.073C243.208 400.383 222.499 407.362 205.215 414.693V414.693ZM312.037 383.17C312.666 382.07 313.397 381.033 314.235 380.077C317.666 376.156 322.37 374.193 327.947 374.193C332.139 374.193 336.824 375.302 341.833 377.524C336.726 378.4 331.592 379.328 326.435 380.309C321.579 381.232 316.779 382.187 312.037 383.17V383.17ZM390.476 370.672C394.058 368.316 398.349 366.088 403.92 364.303C422.786 358.255 456.168 357.301 464.041 357.16C466.443 361.186 470.261 364.91 475.595 368.049C467.893 367.409 459.437 367.095 450.344 367.095C432.463 367.095 412.159 368.313 390.476 370.672" fill="#CD8145"/>
<path d="M129.168 437.54C128.615 439.238 127.742 443.791 130.024 445.58C131.938 447.08 141.047 450.266 177.878 428.277C208.681 409.887 262.828 392.403 326.435 380.308C388.017 368.598 446.83 364.325 483.764 368.885C499.851 370.861 510.49 364.073 515.376 348.682C522.139 327.372 517.212 290.918 502.517 253.548C487.787 216.092 466.756 186.865 447.633 177.27C436.207 171.537 418.884 172.051 397.539 178.755C358.133 191.133 308.421 223.212 261.152 266.771C223.731 301.255 170.47 358.866 129.168 437.54V437.54ZM134.378 452.479C130.963 452.479 128.263 451.684 126.259 450.102C120.135 445.269 123.446 435.842 123.59 435.444C123.635 435.319 123.688 435.2 123.749 435.083C165.452 355.568 219.257 297.363 257.052 262.535C304.946 218.401 355.484 185.843 395.709 173.208C418.925 165.916 437.311 165.54 450.364 172.089C471.047 182.466 492.627 212.137 508.092 251.46C523.244 289.993 528.221 327.906 521.08 350.405C515.931 366.624 504.941 375.053 489.117 375.055C487.155 375.055 485.122 374.925 483.014 374.665C404.054 364.924 243.166 396.13 180.993 433.249C159.45 446.111 144.049 452.479 134.378 452.479" fill="#6C184E"/>
<path d="M453.025 208.771C444.006 206.748 453.923 203.442 441.966 191.809C430.008 180.175 416.867 189.738 416.867 189.738C419 185.476 419.487 181.514 417.195 178.381C406.906 164.317 379.89 173.118 370.005 161.835C360.118 150.55 336.511 160.897 336.511 160.897C336.511 160.897 195.546 242.997 155.191 337.564C114.837 432.133 117.918 461.16 135.457 454.612C152.997 448.066 165.925 433.312 178.768 444.937C191.612 456.56 175.575 478.352 191.105 489.093C199.803 495.108 219.94 484.31 210.263 468.198C200.588 452.085 187.773 422.219 209.478 406.198C231.184 390.176 281.021 381.65 278.077 404.153C270.782 459.92 331.587 436.268 312.703 412.703C296.664 392.69 311.419 357.554 347.18 376.898C377.195 393.136 373.38 371.027 402.988 361.534C425.075 354.454 465.718 354.222 465.718 354.222C494.238 337.878 468.453 329.809 468.453 329.809C468.453 329.809 492.352 311.854 486.359 299.449C480.366 287.044 483.273 267.501 483.802 247.716C484.33 227.932 462.045 210.795 453.025 208.771" fill="#FFCE00"/>
<path d="M197.072 487.872C195.449 487.872 193.965 487.5 192.833 486.717C186.069 482.038 186.487 474.796 186.973 466.411C187.439 458.383 187.965 449.286 180.799 442.8C176.733 439.12 172.61 437.719 168.469 437.719C161.692 437.719 154.869 441.476 148.189 445.157C143.803 447.573 139.267 450.071 134.39 451.892C133.214 452.33 132.268 452.524 131.507 452.568C131.253 451.443 131.071 450.181 130.966 448.779C157.082 439.442 189.351 404.154 221.47 384.677C247.449 368.922 310.206 358.074 362.774 351.403C361.109 351.69 359.446 351.98 357.782 352.271C374.967 350.109 392.191 348.256 409.44 346.936C418.062 346.278 426.693 345.758 435.317 345.446C440.567 345.259 445.816 345.147 451.055 345.147C454.35 345.147 457.641 345.193 460.924 345.289C460.915 345.546 460.911 345.803 460.911 346.058C460.913 347.846 461.139 349.627 461.596 351.378C450.612 351.638 420.418 352.88 402.056 358.767C390.271 362.544 383.533 368.22 378.12 372.779C373.26 376.873 369.796 379.792 364.515 379.792C360.629 379.792 355.759 378.21 348.627 374.35C341.288 370.381 334.226 368.409 327.906 368.409C320.597 368.409 314.281 371.049 309.694 376.293C300.925 386.314 301.214 403.095 310.35 414.498C315.476 420.894 312.922 426.134 310.946 428.69C307.63 432.97 301.873 435.508 296.441 435.508C294.494 435.508 292.588 435.182 290.853 434.492C282.433 431.145 278.949 420.5 281.039 404.521C281.829 398.478 279.502 393.732 274.308 390.796C270.315 388.539 264.831 387.542 258.61 387.542C241.998 387.542 220.163 394.658 207.676 403.874C182.971 422.109 199.454 455.963 207.687 469.669C212.19 477.167 208.685 482.025 206.197 484.252C203.593 486.581 200.094 487.872 197.072 487.872V487.872ZM446.184 340.812C455.638 262.929 425.517 219.255 390.67 194.511C386.65 189.516 380.854 185.936 374.008 184.18C358.976 176.058 344.076 170.902 331.965 167.554C333.58 166.378 334.993 165.359 336.18 164.508C336.582 164.266 336.92 164.065 337.194 163.901C345.457 164.851 405.585 173.208 440.285 217.372C460.265 242.803 468.392 275.443 464.529 314.585C464.464 314.636 464.43 314.661 464.43 314.661C464.43 314.661 464.461 314.67 464.519 314.689C463.951 320.416 463.127 326.278 462.047 332.28C461.617 334.665 461.599 336.972 461.992 339.192C461.882 339.539 461.78 339.888 461.688 340.235C461.541 340.21 461.389 340.197 461.234 340.197C461.217 340.197 461.2 340.197 461.183 340.197C456.168 340.292 451.171 340.506 446.184 340.812Z" fill="#D39718"/>
<path d="M127.48 449.877C126.029 446.673 124.88 439.048 128.9 421.123C130.505 413.962 132.78 405.831 135.712 396.763C135.887 396.754 136.063 396.724 136.234 396.67C136.535 396.576 139.126 395.756 142.592 394.229C133.482 421.06 130.206 438.624 130.966 448.778C129.791 449.198 128.629 449.565 127.48 449.877V449.877ZM162.173 343.689C161.125 341.641 159.775 339.672 158.308 337.846C179.102 289.89 226.555 245.192 262.812 216.074C292.328 192.368 319.386 174.884 331.438 167.409C331.613 167.456 331.79 167.505 331.965 167.554C314.741 180.081 274.305 210.494 234.847 247.466C235.368 247.762 235.868 248.096 236.318 248.503C240.94 252.675 239.794 261.218 233.757 267.586C229.929 271.623 225.055 273.815 220.821 273.815C218.379 273.815 216.148 273.086 214.457 271.559C213.792 270.957 213.259 270.257 212.83 269.493C192.022 291.836 173.792 316.457 162.897 341.989C162.655 342.556 162.412 343.127 162.173 343.689" fill="#FFEEA6"/>
<path d="M131.168 452.578C129.58 452.578 128.896 451.892 128.605 451.601C128.269 451.262 127.864 450.725 127.48 449.877C128.629 449.565 129.791 449.198 130.966 448.778C131.071 450.181 131.253 451.443 131.507 452.568C131.389 452.575 131.277 452.578 131.168 452.578Z" fill="#F0DBAE"/>
<path d="M331.965 167.554C331.79 167.505 331.613 167.456 331.438 167.409C333.46 166.154 335.062 165.18 336.18 164.508C334.993 165.358 333.58 166.378 331.965 167.554Z" fill="#F0DBAE"/>
<path d="M168.469 437.719C172.61 437.719 176.733 439.12 180.799 442.8C187.965 449.286 187.439 458.383 186.973 466.411C186.487 474.796 186.069 482.038 192.833 486.717C196.076 488.958 202.196 487.832 206.197 484.252C208.685 482.025 212.19 477.167 207.687 469.669C199.454 455.963 182.971 422.109 207.676 403.874C224.837 391.207 259.65 382.51 274.308 390.796C279.502 393.731 281.829 398.478 281.039 404.521C278.949 420.5 282.433 431.145 290.853 434.492C297.426 437.106 306.441 434.505 310.946 428.69C312.922 426.134 315.476 420.894 310.35 414.498C301.214 403.095 300.925 386.314 309.694 376.293C318.247 366.515 332.801 365.79 348.627 374.35C365.449 383.452 369.683 379.885 378.12 372.779C383.533 368.22 390.271 362.544 402.056 358.767C422.859 352.098 458.846 351.389 464.884 351.316C475.128 345.308 476.341 341.357 476.136 339.516C475.74 335.957 469.642 333.249 467.536 332.581C466.483 332.247 465.703 331.371 465.516 330.306C465.327 329.242 465.755 328.163 466.632 327.502C472.334 323.208 487.706 309.068 483.659 300.691C478.657 290.343 479.431 275.826 480.248 260.458C480.471 256.268 480.702 251.936 480.816 247.639C481.291 229.916 460.792 213.502 452.357 211.611C446.942 210.396 445.818 208.169 445.638 204.483C445.53 202.272 445.382 199.245 439.858 193.872C429.924 184.207 419.099 191.755 418.642 192.08C417.536 192.873 416.011 192.83 414.958 191.97C413.904 191.109 413.582 189.664 414.185 188.46C416.912 183.009 415.296 180.798 414.764 180.074C410.099 173.695 401.063 172.771 391.497 171.794C382.482 170.872 373.16 169.921 367.736 163.728C360.877 155.9 344.031 160.837 337.894 163.486C335.356 164.98 301.159 185.275 262.812 216.074C226.344 245.362 178.548 290.41 157.948 338.684C143.178 373.296 133.405 401.032 128.9 421.123C123.816 443.791 127 449.987 128.605 451.601C129.045 452.041 130.384 453.385 134.39 451.892C139.267 450.071 143.803 447.573 148.189 445.157C154.869 441.476 161.692 437.719 168.469 437.719V437.719ZM197.103 493.685C194.244 493.685 191.541 492.965 189.38 491.469C179.921 484.928 180.5 474.915 181.011 466.081C181.439 458.683 181.844 451.694 176.738 447.072C169.565 440.581 162.679 443.865 151.125 450.23C146.548 452.751 141.816 455.359 136.524 457.334C130.173 459.704 126.383 457.731 124.321 455.66C111.155 442.433 132.342 383.53 152.435 336.445C173.517 287.041 222.069 241.24 259.088 211.519C299.083 179.405 334.626 158.603 334.982 158.396C335.08 158.338 335.184 158.286 335.289 158.239C336.335 157.782 361.064 147.145 372.274 159.942C376.151 164.367 383.908 165.16 392.119 165.998C402.091 167.018 413.395 168.173 419.625 176.687C421.224 178.873 421.901 181.386 421.654 184.201C427.912 182.266 436.463 182.34 444.075 189.746C451.237 196.714 451.465 201.404 451.602 204.204C451.62 204.565 451.643 205.038 451.686 205.279C451.872 205.388 452.402 205.642 453.694 205.931C464.082 208.262 487.357 226.493 486.787 247.792C486.669 252.163 486.436 256.533 486.212 260.761C485.434 275.377 484.7 289.181 489.059 298.206C494.478 309.421 481.102 322.964 474.048 329.055C477.459 330.911 481.528 334.092 482.071 338.867C482.743 344.781 477.888 350.626 467.229 356.734C466.775 356.994 466.26 357.133 465.735 357.136C465.332 357.137 425.302 357.448 403.92 364.303C393.27 367.718 387.295 372.751 382.022 377.19C372.212 385.454 365.21 389.986 345.731 379.447C332.385 372.228 320.904 372.456 314.235 380.077C307.242 388.068 307.603 401.609 315.054 410.908C320.515 417.722 320.758 425.682 315.71 432.202C309.578 440.119 297.67 443.493 288.599 439.889C282.136 437.317 271.79 429.21 275.115 403.784C275.597 400.099 274.39 397.575 271.314 395.837C259.976 389.428 227.994 396.183 211.279 408.521C190.396 423.935 205.413 454.36 212.839 466.724C217.607 474.662 216.633 482.82 210.233 488.546C206.484 491.901 201.602 493.685 197.103 493.685" fill="#6C184E"/>
<path d="M357.782 352.271C374.835 349.271 391.954 346.571 409.17 344.398C417.778 343.317 426.41 342.369 435.075 341.63C443.739 340.895 452.437 340.361 461.183 340.197C462.626 340.17 463.818 341.291 463.846 342.698C463.873 344.107 462.727 345.27 461.283 345.297C461.242 345.298 461.2 345.298 461.16 345.297H461.144C452.565 345.035 443.941 345.139 435.317 345.446C426.693 345.758 418.062 346.278 409.44 346.935C392.191 348.256 374.967 350.109 357.782 352.271" fill="#6C184E"/>
<path d="M464.519 314.689C464.461 314.67 464.43 314.661 464.43 314.661C464.43 314.661 464.464 314.636 464.529 314.585C464.526 314.618 464.522 314.656 464.519 314.689Z" fill="#B47128"/>
<path d="M396.549 209.181C398.412 228.548 381.607 248.881 359.011 254.593C336.416 260.307 316.587 249.237 314.723 229.868C312.859 210.501 329.665 190.168 352.261 184.456C374.856 178.742 394.685 189.812 396.549 209.181Z" fill="#EE1822"/>
<path d="M347.278 256.097C351.044 256.097 354.983 255.611 359.011 254.593C359.208 254.544 359.404 254.494 359.599 254.442C359.404 254.494 359.208 254.544 359.011 254.593C354.983 255.613 351.046 256.097 347.278 256.097ZM359.614 254.437C359.627 254.434 359.643 254.429 359.656 254.426C359.641 254.429 359.628 254.434 359.614 254.437ZM359.696 254.415C359.702 254.414 359.709 254.412 359.715 254.41C359.709 254.412 359.702 254.414 359.696 254.415ZM314.765 230.273C314.757 230.204 314.749 230.132 314.742 230.062C314.749 230.132 314.757 230.204 314.765 230.273ZM314.739 230.04C314.738 230.017 314.734 229.993 314.733 229.969C314.734 229.993 314.738 230.017 314.739 230.04ZM314.731 229.957C314.728 229.928 314.726 229.898 314.723 229.868C314.628 228.885 314.581 227.899 314.581 226.912C314.581 227.899 314.628 228.885 314.723 229.868C314.726 229.898 314.728 229.928 314.731 229.957ZM352.32 184.44C353.181 184.224 354.039 184.032 354.89 183.863C354.039 184.032 353.181 184.224 352.32 184.44ZM354.903 183.86C354.914 183.859 354.924 183.857 354.935 183.854C354.925 183.856 354.914 183.859 354.903 183.86ZM354.974 183.846C354.977 183.846 354.979 183.846 354.982 183.845C354.979 183.846 354.975 183.846 354.974 183.846Z" fill="#FFEEA6"/>
<path d="M347.278 256.097C330.067 256.097 316.487 245.959 314.765 230.273C314.757 230.204 314.749 230.132 314.742 230.062C314.741 230.056 314.741 230.048 314.739 230.04C314.738 230.017 314.734 229.993 314.733 229.969C314.733 229.965 314.731 229.961 314.731 229.957C314.728 229.928 314.726 229.898 314.723 229.868C314.628 228.885 314.581 227.899 314.581 226.912C314.581 208.473 330.812 189.878 352.261 184.456C352.28 184.45 352.301 184.445 352.32 184.44C353.181 184.224 354.039 184.032 354.89 183.863C354.895 183.862 354.898 183.862 354.903 183.86C354.914 183.859 354.925 183.856 354.935 183.854C354.948 183.852 354.961 183.849 354.974 183.846C354.975 183.846 354.979 183.846 354.982 183.845C358.06 183.243 361.075 182.953 363.985 182.953C376.552 182.953 387.177 188.358 392.671 197.378C387.254 189.82 377.76 185.345 366.66 185.345C363.112 185.345 359.4 185.802 355.605 186.761C334.297 192.149 318.449 211.322 320.208 229.586C321.651 244.596 334.536 254.321 350.907 254.321C354.459 254.321 358.173 253.862 361.972 252.902C366.792 251.683 371.329 249.754 375.45 247.292C370.725 250.422 365.413 252.885 359.715 254.41C359.709 254.412 359.702 254.414 359.696 254.415C359.683 254.42 359.67 254.423 359.656 254.426C359.643 254.429 359.627 254.434 359.614 254.437C359.609 254.439 359.604 254.44 359.599 254.442C359.404 254.494 359.208 254.544 359.011 254.593C354.983 255.611 351.044 256.097 347.278 256.097" fill="#F9AEB2"/>
<path d="M359.032 192.416L363.966 243.67C377.76 237.781 387.325 224.525 386.103 211.822C384.88 199.118 373.278 191.213 359.032 192.416Z" fill="#BD1622"/>
<path d="M346.682 195.652C333.225 201.67 323.964 214.717 325.169 227.227C326.372 239.739 337.645 247.593 351.594 246.681L346.682 195.652" fill="#BD1622"/>
<path d="M346.682 195.652C333.225 201.67 323.964 214.717 325.169 227.227C326.372 239.739 337.645 247.593 351.594 246.681L346.682 195.652" fill="#BD1622"/>
<path d="M348.574 212.747C344.165 214.718 341.13 218.994 341.526 223.092C341.92 227.191 345.613 229.764 350.184 229.467L348.574 212.747" fill="#EE1822"/>
<path d="M360.45 209.743C365.021 209.446 368.714 212.019 369.108 216.118C369.504 220.216 366.469 224.492 362.06 226.463L360.45 209.743" fill="#EE1822"/>
<path d="M363.987 185.43C360.389 185.43 356.657 185.899 352.895 186.85C331.488 192.263 315.497 211.456 317.246 229.637C317.979 237.248 321.855 243.816 328.16 248.132C336.096 253.566 347.109 255.047 358.375 252.2C379.783 246.787 395.775 227.593 394.026 209.412C393.293 201.801 389.417 195.233 383.112 190.915C377.824 187.296 371.171 185.43 363.987 185.43ZM347.294 258.563C339.069 258.563 331.395 256.391 325.248 252.182C317.708 247.02 313.074 239.177 312.199 230.1C310.227 209.606 327.913 188.057 351.624 182.062C364.331 178.848 376.868 180.6 386.024 186.867C393.564 192.029 398.199 199.871 399.073 208.949C401.045 229.443 383.359 250.992 359.648 256.988C355.474 258.043 351.317 258.563 347.294 258.563Z" fill="#6C184E"/>
<path d="M341.991 235.494C342.283 236.232 342.487 236.95 342.651 237.659C342.836 238.375 342.952 239.073 342.898 239.738C342.821 240.72 341.944 241.456 340.936 241.38C339.93 241.304 339.178 240.447 339.253 239.465C339.266 239.301 339.305 239.136 339.36 238.988C339.596 238.362 339.998 237.773 340.468 237.198C340.92 236.618 341.409 236.046 341.991 235.494" fill="#F6C547"/>
<path d="M336.19 230.329C336.075 231.115 335.891 231.841 335.678 232.541C335.479 233.255 335.229 233.923 334.849 234.481C334.29 235.302 333.157 235.526 332.315 234.98C331.476 234.437 331.246 233.329 331.803 232.509C331.897 232.372 332.013 232.248 332.133 232.144C332.653 231.707 333.302 231.381 334.003 231.099C334.689 230.806 335.405 230.537 336.19 230.329Z" fill="#F6C547"/>
<path d="M334.643 222.073C334.173 222.665 333.678 223.173 333.171 223.644C332.669 224.131 332.147 224.555 331.576 224.818C330.662 225.239 329.571 224.857 329.139 223.964C328.707 223.073 329.1 222.008 330.014 221.587C330.179 221.51 330.36 221.46 330.532 221.435C331.157 221.346 331.832 221.419 332.527 221.556C333.215 221.674 333.916 221.83 334.643 222.073Z" fill="#F6C547"/>
<path d="M337.894 213.625C337.193 213.822 336.524 213.937 335.872 214.016C335.211 214.11 334.576 214.143 334.006 214.019C333.016 213.806 332.391 212.851 332.611 211.885C332.829 210.921 333.808 210.311 334.798 210.525C334.991 210.568 335.179 210.642 335.342 210.735C335.844 211.029 336.283 211.477 336.695 211.987C337.117 212.482 337.522 213.012 337.894 213.625Z" fill="#F6C547"/>
<path d="M344.801 207.949C344.121 207.638 343.522 207.285 342.957 206.912C342.375 206.549 341.855 206.152 341.487 205.678C340.875 204.891 341.033 203.769 341.841 203.174C342.647 202.577 343.795 202.731 344.407 203.517C344.522 203.667 344.612 203.834 344.673 204C344.877 204.562 344.932 205.202 344.924 205.876C344.933 206.541 344.908 207.224 344.801 207.949" fill="#F6C547"/>
<path d="M371.573 227.941C372.235 228.315 372.813 228.724 373.356 229.15C373.916 229.569 374.412 230.015 374.751 230.53C375.299 231.359 375.053 232.465 374.204 232.998C373.353 233.532 372.22 233.293 371.673 232.464C371.573 232.313 371.497 232.142 371.448 231.978C371.28 231.387 371.268 230.73 371.318 230.045C371.352 229.366 371.421 228.672 371.573 227.941" fill="#F6C547"/>
<path d="M376.012 220.1C376.731 219.971 377.406 219.923 378.065 219.909C378.73 219.879 379.365 219.909 379.921 220.087C380.882 220.396 381.407 221.408 381.088 222.347C380.772 223.285 379.735 223.797 378.774 223.486C378.584 223.426 378.406 223.333 378.252 223.223C377.784 222.883 377.393 222.394 377.035 221.846C376.668 221.312 376.319 220.746 376.012 220.1Z" fill="#F6C547"/>
<path d="M375.909 211.367C376.405 210.815 376.92 210.353 377.443 209.926C377.963 209.483 378.498 209.107 379.068 208.893C380.013 208.538 381.072 209 381.436 209.922C381.797 210.842 381.326 211.877 380.381 212.23C380.203 212.296 380.013 212.334 379.834 212.345C379.223 212.381 378.577 212.254 377.917 212.058C377.259 211.882 376.594 211.668 375.909 211.367" fill="#F6C547"/>
<path d="M371.298 204.808C371.437 204.039 371.644 203.335 371.878 202.655C372.099 201.964 372.371 201.319 372.765 200.79C373.359 199.994 374.502 199.819 375.32 200.397C376.135 200.979 376.314 202.094 375.72 202.89C375.62 203.026 375.494 203.15 375.365 203.248C374.837 203.65 374.186 203.935 373.483 204.171C372.795 204.422 372.08 204.646 371.298 204.808" fill="#F6C547"/>
<path d="M363.798 202.723C363.535 201.971 363.362 201.245 363.226 200.525C363.073 199.801 362.986 199.096 363.066 198.431C363.184 197.452 364.092 196.752 365.093 196.867C366.096 196.981 366.813 197.866 366.697 198.845C366.678 199.007 366.632 199.171 366.571 199.316C366.311 199.934 365.885 200.512 365.39 201.072C364.914 201.636 364.4 202.19 363.798 202.723Z" fill="#F6C547"/>
<path d="M361.804 194.768L366.145 239.859C377.393 233.764 384.588 222.527 383.58 212.052C382.587 201.746 373.619 194.768 361.841 194.768H361.804ZM363.964 246.142C363.519 246.142 363.075 246.027 362.679 245.8C361.978 245.398 361.518 244.691 361.442 243.901L356.508 192.646C356.445 191.99 356.653 191.336 357.086 190.83C357.519 190.324 358.141 190.008 358.813 189.951C374.757 188.602 387.29 197.707 388.627 211.589C389.926 225.089 379.982 239.533 364.98 245.936C364.656 246.074 364.31 246.142 363.964 246.142" fill="#BD1622"/>
<path d="M344.51 199.535C333.644 205.708 326.71 216.791 327.692 226.996C328.677 237.226 337.212 244.07 348.817 244.278L344.51 199.535ZM349.413 249.226C334.978 249.226 323.887 240.354 322.645 227.459C321.353 214.036 330.804 200.032 345.626 193.405C346.372 193.071 347.238 193.111 347.95 193.512C348.661 193.913 349.129 194.625 349.207 195.422L354.118 246.451C354.181 247.114 353.968 247.776 353.524 248.285C353.081 248.793 352.446 249.105 351.763 249.149C350.972 249.201 350.187 249.226 349.413 249.226" fill="#BD1622"/>
<path d="M303.334 301.228C305.078 319.346 289.358 338.365 268.221 343.708C247.085 349.053 228.537 338.697 226.793 320.581C225.049 302.464 240.771 283.444 261.906 278.1C283.043 272.756 301.59 283.111 303.334 301.228" fill="#EE1822"/>
<path d="M225.244 345.115H268.353V277.949H225.244V345.115Z" fill="#FFEEA6"/>
<path d="M257.247 345.115C257.244 345.115 257.239 345.115 257.236 345.115C242.885 345.111 231.236 337.57 227.736 325.54C227.277 323.961 226.959 322.307 226.793 320.581C225.244 304.481 237.486 287.668 255.065 280.374C257.268 279.46 259.553 278.696 261.906 278.1C261.927 278.095 261.948 278.089 261.969 278.084C262.048 278.064 262.126 278.045 262.203 278.026C262.22 278.023 262.236 278.018 262.252 278.015C262.253 278.013 262.257 278.013 262.26 278.012C262.263 278.012 262.266 278.01 262.271 278.01C262.284 278.007 262.297 278.004 262.31 278.001C262.363 277.986 262.417 277.974 262.47 277.961C262.471 277.961 262.476 277.96 262.48 277.96C262.489 277.956 262.501 277.953 262.51 277.952C262.515 277.95 262.518 277.95 262.523 277.949C266.075 277.101 269.547 276.694 272.875 276.694C284.628 276.694 294.568 281.751 299.709 290.188C294.641 283.117 285.76 278.932 275.375 278.932C272.058 278.932 268.584 279.361 265.034 280.257C245.104 285.297 230.278 303.231 231.924 320.316C233.274 334.357 245.327 343.453 260.64 343.453C263.962 343.453 267.438 343.024 270.989 342.126C275.5 340.987 279.744 339.181 283.599 336.88C279.032 339.904 273.881 342.26 268.353 343.675H268.352C268.332 343.68 268.313 343.686 268.294 343.691C268.29 343.691 268.289 343.692 268.285 343.692C268.264 343.697 268.243 343.703 268.221 343.708C264.456 344.662 260.772 345.114 257.25 345.115C257.25 345.115 257.249 345.115 257.247 345.115" fill="#F9AEB2"/>
<path d="M268.24 285.546L272.856 333.49C285.76 327.983 294.707 315.581 293.563 303.699C292.42 291.816 281.567 284.422 268.24 285.546Z" fill="#BD1622"/>
<path d="M256.688 288.575C244.099 294.203 235.438 306.407 236.564 318.11C237.691 329.813 248.235 337.161 261.283 336.308L256.688 288.575Z" fill="#BD1622"/>
<path d="M256.688 288.575C244.099 294.203 235.438 306.407 236.564 318.11C237.691 329.813 248.235 337.161 261.283 336.308L256.688 288.575Z" fill="#BD1622"/>
<path d="M258.458 304.564C254.333 306.408 251.496 310.408 251.864 314.242C252.234 318.076 255.688 320.484 259.963 320.205L258.458 304.564Z" fill="#EE1822"/>
<path d="M269.568 301.756C273.843 301.476 277.297 303.884 277.667 307.718C278.035 311.552 275.198 315.551 271.073 317.395L269.568 301.756" fill="#EE1822"/>
<path d="M272.877 279.249C269.531 279.249 266.06 279.684 262.562 280.568C242.647 285.604 227.768 303.446 229.395 320.342C230.073 327.392 233.661 333.475 239.501 337.473C246.866 342.514 257.095 343.888 267.565 341.241C287.481 336.206 302.359 318.363 300.734 301.466C300.054 294.418 296.466 288.333 290.627 284.337C285.723 280.979 279.547 279.249 272.877 279.249V279.249ZM257.261 347.657C249.516 347.657 242.292 345.61 236.499 341.646C229.387 336.776 225.016 329.381 224.193 320.819C222.337 301.539 238.962 281.269 261.251 275.632C273.206 272.61 285.007 274.261 293.628 280.163C300.741 285.032 305.112 292.429 305.936 300.989C307.792 320.271 291.167 340.541 268.877 346.176C264.954 347.169 261.045 347.657 257.261 347.657" fill="#6C184E"/>
<path d="M255.948 326.585C256.351 327.159 256.677 327.736 256.971 328.314C257.274 328.892 257.534 329.472 257.644 330.061C257.791 330.859 257.248 331.622 256.431 331.767C255.614 331.91 254.831 331.38 254.684 330.583C254.661 330.465 254.656 330.339 254.663 330.224C254.703 329.627 254.897 329.021 255.131 328.415C255.357 327.806 255.614 327.198 255.948 326.585" fill="#F6C547"/>
<path d="M249.18 323.927C249.219 324.649 249.19 325.337 249.132 326.012C249.081 326.689 248.993 327.348 248.77 327.94C248.484 328.702 247.62 329.091 246.84 328.812C246.061 328.531 245.663 327.688 245.948 326.929C245.989 326.822 246.045 326.716 246.107 326.625C246.464 326.098 246.958 325.64 247.487 325.198C248.011 324.754 248.561 324.324 249.18 323.927" fill="#F6C547"/>
<path d="M245.583 317.354C245.273 317.984 244.921 318.552 244.55 319.095C244.185 319.644 243.797 320.157 243.326 320.55C242.693 321.074 241.743 320.997 241.205 320.38C240.667 319.762 240.746 318.837 241.38 318.312C241.472 318.235 241.58 318.167 241.683 318.115C242.239 317.847 242.875 317.702 243.537 317.592C244.193 317.475 244.868 317.384 245.583 317.354Z" fill="#F6C547"/>
<path d="M246.418 309.175C245.851 309.519 245.288 309.788 244.724 310.026C244.161 310.274 243.599 310.479 243.04 310.537C242.213 310.622 241.472 310.036 241.384 309.229C241.297 308.422 241.896 307.699 242.723 307.614C242.859 307.599 242.999 307.604 243.127 307.625C243.681 307.713 244.23 307.951 244.777 308.23C245.325 308.499 245.872 308.8 246.418 309.175" fill="#F6C547"/>
<path d="M251.393 302.259C250.742 302.171 250.143 302.027 249.564 301.86C248.98 301.698 248.424 301.507 247.97 301.206C247.282 300.749 247.105 299.834 247.573 299.163C248.041 298.491 248.98 298.318 249.668 298.775C249.782 298.851 249.887 298.947 249.973 299.044C250.327 299.454 250.577 299.974 250.8 300.526C251.029 301.069 251.236 301.637 251.393 302.259Z" fill="#F6C547"/>
<path d="M279.971 318.777C280.546 319.146 281.05 319.546 281.527 319.959C282.01 320.367 282.455 320.792 282.762 321.278C283.197 321.97 282.975 322.874 282.268 323.3C281.559 323.723 280.632 323.508 280.198 322.817C280.128 322.71 280.075 322.589 280.038 322.474C279.868 321.927 279.837 321.319 279.846 320.695C279.846 320.075 279.875 319.44 279.971 318.777" fill="#F6C547"/>
<path d="M284.125 311.441C284.775 311.366 285.388 311.355 285.987 311.372C286.59 311.382 287.173 311.426 287.686 311.604C288.473 311.876 288.883 312.716 288.605 313.482C288.328 314.246 287.465 314.648 286.68 314.377C286.549 314.332 286.422 314.265 286.312 314.19C285.868 313.882 285.493 313.444 285.138 312.967C284.779 312.5 284.434 312.004 284.125 311.441Z" fill="#F6C547"/>
<path d="M284.027 303.274C284.502 302.806 284.993 302.41 285.49 302.045C285.984 301.671 286.49 301.339 287.026 301.15C287.808 300.875 288.67 301.273 288.951 302.035C289.234 302.8 288.827 303.643 288.043 303.917C287.919 303.961 287.783 303.988 287.656 303.999C287.087 304.043 286.488 303.942 285.879 303.803C285.272 303.671 284.657 303.509 284.027 303.274" fill="#F6C547"/>
<path d="M279.713 297.138C279.881 296.452 280.102 295.82 280.346 295.207C280.585 294.591 280.853 294.002 281.23 293.516C281.732 292.87 282.675 292.744 283.337 293.234C283.999 293.724 284.129 294.645 283.626 295.289C283.554 295.384 283.465 295.47 283.374 295.543C282.89 295.927 282.296 296.208 281.671 296.458C281.052 296.717 280.411 296.953 279.713 297.138" fill="#F6C547"/>
<path d="M272.699 295.188C272.501 294.498 272.376 293.827 272.284 293.162C272.182 292.495 272.123 291.84 272.208 291.222C272.321 290.418 273.079 289.857 273.901 289.966C274.724 290.076 275.299 290.815 275.188 291.619C275.172 291.732 275.139 291.849 275.099 291.952C274.867 292.533 274.489 293.078 274.069 293.612C273.657 294.15 273.214 294.679 272.699 295.188" fill="#F6C547"/>
<path d="M271.099 287.984L275.099 329.545C285.356 323.846 291.887 313.544 290.962 303.937C290.054 294.492 281.874 288.077 271.099 287.984ZM272.856 336.04C272.396 336.04 271.937 335.92 271.53 335.687C270.806 335.271 270.333 334.543 270.254 333.728L265.64 285.784C265.574 285.108 265.789 284.433 266.234 283.912C266.68 283.39 267.321 283.064 268.016 283.005C283.056 281.734 294.902 290.339 296.164 303.46C297.389 316.185 288.027 329.797 273.902 335.826C273.568 335.969 273.211 336.04 272.856 336.04Z" fill="#BD1622"/>
<path d="M254.451 292.598C244.555 298.36 238.264 308.517 239.165 317.871C240.067 327.234 247.83 333.524 258.419 333.817L254.451 292.598ZM259.24 338.924C245.612 338.924 235.136 330.536 233.963 318.348C232.746 305.694 241.643 292.498 255.6 286.256C256.37 285.914 257.261 285.954 257.995 286.367C258.728 286.78 259.211 287.514 259.29 288.337L263.885 336.069C263.951 336.754 263.729 337.435 263.272 337.96C262.815 338.483 262.161 338.804 261.457 338.851C260.711 338.9 259.97 338.924 259.24 338.924" fill="#BD1622"/>
<path d="M211.534 305.729C183.931 306.835 183.386 320.491 192.153 341.56C208.732 334.805 219.706 322.928 211.534 305.729Z" fill="#48C75A"/>
<path d="M209.9 308.332C200.682 308.742 194.775 310.918 191.877 314.965C187.72 320.769 189.885 330.687 193.017 340.148C202.001 335.556 208.385 329.322 210.725 322.775C212.379 318.147 212.1 313.295 209.9 308.332ZM191.484 346.275C191.135 346.275 190.785 346.206 190.457 346.069C189.775 345.785 189.251 345.234 189.012 344.55C184.796 332.523 181.709 320.261 187.595 312.045C191.689 306.328 199.501 303.428 211.478 303.181C212.473 303.14 213.414 303.704 213.866 304.582C217.355 311.333 217.957 318.019 215.659 324.453C212.589 333.046 204.393 340.711 192.581 346.039C192.232 346.196 191.859 346.275 191.484 346.275" fill="#661A47"/>
<path d="M212.366 308.145C210.569 308.956 208.845 309.977 207.204 311.292C205.577 312.604 203.983 314.116 202.548 315.83C199.671 319.265 197.269 323.252 195.286 327.609C195.278 325.213 195.667 322.806 196.285 320.447C196.923 318.093 197.812 315.775 199.004 313.563C200.195 311.356 201.668 309.208 203.611 307.385C205.536 305.573 207.934 304.004 210.703 303.313C212.103 302.962 213.53 303.786 213.889 305.154C214.207 306.367 213.577 307.601 212.452 308.107L212.366 308.145" fill="#651B47"/>
<path d="M261.499 232.232C285.934 219.657 293.437 231.198 296.705 253.712C278.891 255.999 263.289 251.109 261.499 232.232Z" fill="#48C75A"/>
<path d="M264.253 233.682C264.905 239.052 267.161 243.383 270.974 246.574C276.369 251.089 285.107 253.345 295.232 252.915C293.068 243.198 289.833 233.561 283.25 230.582C278.659 228.502 272.434 229.517 264.253 233.682V233.682ZM292.669 258.074C282.307 258.074 273.536 255.435 267.572 250.443C262.273 246.007 259.351 239.93 258.891 232.383C258.831 231.403 259.353 230.475 260.235 230.001C270.718 224.345 278.965 223.021 285.45 225.957C294.768 230.176 298.412 242.292 300.962 254.759C301.105 255.466 300.936 256.201 300.493 256.779C300.052 257.359 299.379 257.728 298.643 257.795C296.601 257.981 294.607 258.074 292.669 258.074" fill="#661A47"/>
<path d="M260.973 229.734C263.721 228.977 266.603 229.156 269.201 229.78C271.821 230.404 274.2 231.539 276.367 232.861C278.536 234.191 280.496 235.76 282.262 237.483C284.011 239.219 285.585 241.109 286.814 243.186C282.854 240.39 278.726 238.12 274.469 236.561C272.346 235.783 270.19 235.258 268.105 234.919C266.01 234.586 263.994 234.549 262.024 234.73L261.93 234.738C260.49 234.869 259.214 233.836 259.078 232.432C258.959 231.184 259.781 230.064 260.973 229.734" fill="#651B47"/>
<path d="M370.139 316.952C351.211 299.829 341.576 308.469 333.037 328.013C348.543 334.286 363.837 333.565 370.139 316.952Z" fill="#48C75A"/>
<path d="M334.565 327.643C343.599 330.429 352.039 330.452 358.028 327.654C362.261 325.676 365.371 322.302 367.295 317.609C360.946 311.917 355.583 309.533 350.922 310.321C344.242 311.454 338.93 319.385 334.565 327.643ZM347.464 334.532C342.154 334.532 336.325 333.432 330.276 331.239C329.628 331.004 329.111 330.512 328.856 329.885C328.601 329.258 328.632 328.555 328.937 327.95C334.333 317.303 340.628 307.232 350.085 305.628C356.665 304.506 363.779 307.656 371.834 315.238C372.511 315.876 372.752 316.835 372.455 317.705C370.165 324.407 366.02 329.199 360.137 331.949C356.45 333.673 352.159 334.532 347.464 334.532Z" fill="#661A47"/>
<path d="M369.045 319.081C367.312 318.452 365.483 318.011 363.511 317.816C361.545 317.628 359.47 317.592 357.361 317.792C353.131 318.194 348.843 319.265 344.576 320.852C346.199 319.269 348.091 317.935 350.1 316.782C352.12 315.646 354.278 314.692 356.566 314.007C358.85 313.325 361.279 312.863 363.797 312.92C366.297 312.97 368.942 313.488 371.234 314.823C372.393 315.499 372.773 316.965 372.08 318.096C371.466 319.102 370.213 319.507 369.128 319.111L369.045 319.081" fill="#651B47"/>
<path d="M154.259 360.19C155.754 360.273 157.16 360.396 158.609 360.554C160.05 360.71 161.493 360.908 162.947 361.161C164.402 361.41 165.865 361.712 167.367 362.141C168.874 362.588 170.394 363.061 172.085 364.076L172.277 364.191C173.986 365.215 174.519 367.399 173.469 369.065C172.417 370.732 170.181 371.254 168.472 370.228C168.278 370.111 168.086 369.966 167.923 369.823C167.309 369.276 166.221 368.691 165.111 368.194C163.987 367.685 162.756 367.234 161.497 366.829C160.239 366.418 158.944 366.046 157.634 365.71C156.332 365.376 154.977 365.061 153.696 364.802L153.639 364.791C152.349 364.53 151.52 363.299 151.787 362.041C152.03 360.896 153.097 360.122 154.259 360.19" fill="#48C75A"/>
<path d="M170.37 368.721C170.095 368.721 169.817 368.649 169.567 368.499C169.489 368.452 169.397 368.383 169.33 368.324C168.616 367.688 167.49 367.023 165.986 366.35C164.872 365.846 163.617 365.37 162.157 364.9C161.741 364.765 161.317 364.632 160.887 364.503C160.597 363.991 160.279 363.48 159.934 362.968C159.927 362.897 159.917 362.826 159.902 362.755C160.811 362.874 161.699 363.009 162.589 363.162C164.189 363.436 165.521 363.731 166.762 364.085C168.289 364.539 169.572 364.954 170.993 365.806L171.187 365.921C171.914 366.358 172.141 367.292 171.694 368.001C171.402 368.465 170.891 368.721 170.37 368.721" fill="#539256"/>
<path d="M154.123 362.216C154.001 362.216 153.86 362.297 153.827 362.453C153.806 362.552 153.839 362.628 153.87 362.673C153.902 362.721 153.96 362.781 154.061 362.801C155.385 363.067 156.785 363.39 158.165 363.747C159.538 364.096 160.883 364.486 162.157 364.9C163.617 365.37 164.872 365.846 165.986 366.35C167.49 367.023 168.616 367.688 169.33 368.324C169.397 368.383 169.489 368.452 169.567 368.499C170.29 368.933 171.247 368.71 171.694 368.001C172.141 367.292 171.914 366.358 171.187 365.921L170.993 365.806C169.572 364.954 168.289 364.539 166.762 364.085C165.521 363.731 164.189 363.436 162.589 363.162C161.209 362.924 159.835 362.732 158.38 362.574C156.858 362.409 155.511 362.295 154.139 362.218L154.123 362.216V362.216ZM170.365 372.784C169.344 372.784 168.312 372.519 167.382 371.96C167.086 371.782 166.791 371.566 166.526 371.331C166.377 371.199 165.802 370.738 164.242 370.04C163.268 369.601 162.159 369.182 160.845 368.759C159.65 368.37 158.395 368.006 157.106 367.677C155.793 367.339 154.47 367.034 153.274 366.793C152.049 366.545 151.044 365.88 150.389 364.906C149.733 363.934 149.506 362.77 149.748 361.629C150.193 359.526 152.179 358.036 154.38 358.16C155.828 358.242 157.245 358.36 158.84 358.534C160.363 358.699 161.868 358.909 163.312 359.159C165.064 359.459 166.54 359.786 167.952 360.19C169.73 360.718 171.334 361.238 173.176 362.344L173.37 362.461C176.053 364.07 176.893 367.511 175.244 370.13C174.165 371.84 172.285 372.784 170.365 372.784" fill="#661A47"/>
<path d="M157.576 362.951C149.156 332.914 113.774 357.409 113.774 357.409C113.774 357.409 141.582 389.899 157.576 362.951Z" fill="#48C75A"/>
<path d="M116.789 359.883C115.887 359.099 115.11 358.387 114.482 357.795C118.939 355.287 129.433 350.016 138.833 350.016C141.158 350.016 143.415 350.339 145.498 351.105C146.275 351.39 147.015 351.737 147.716 352.142C147.861 352.498 148.011 352.842 148.164 353.176C145.823 352.175 143.291 351.762 140.703 351.762C131.232 351.762 121.021 357.306 116.789 359.883" fill="#BFEBC5"/>
<path d="M114.482 357.795C119.05 362.108 131.513 372.688 142.667 371.515C147.694 370.983 151.949 368.008 155.324 362.667C153.471 356.71 150.168 352.823 145.498 351.105C134.992 347.24 120.041 354.668 114.482 357.795ZM140.927 375.671C125.623 375.671 110.282 359.484 109.607 358.762C109.196 358.324 109.003 357.732 109.078 357.141C109.153 356.551 109.489 356.023 109.997 355.696C110.884 355.124 131.901 341.765 146.96 347.298C153.165 349.578 157.413 354.665 159.585 362.415C159.732 362.94 159.658 363.499 159.379 363.97C155.231 370.958 149.757 374.856 143.108 375.557C142.383 375.635 141.654 375.671 140.927 375.671" fill="#661A47"/>
<path d="M157.576 362.951L133.826 359.946L157.576 362.951Z" fill="#48C75A"/>
<path d="M157.308 364.966C155.307 364.878 153.332 364.596 151.362 364.276C149.392 363.956 147.438 363.52 145.483 363.083C141.577 362.191 137.682 361.217 133.826 359.946C137.886 359.676 141.908 359.703 145.918 359.813C147.922 359.878 149.926 359.942 151.914 360.124C153.903 360.305 155.886 360.522 157.844 360.935C158.972 361.173 159.689 362.259 159.445 363.36C159.226 364.347 158.309 365.012 157.308 364.966" fill="#651B47"/>
<path d="M140.199 375.654C142.874 373.343 145.573 371.057 148.301 368.794C151.034 366.533 153.779 364.293 156.658 362.123C157.572 361.433 158.887 361.599 159.594 362.491C160.301 363.384 160.132 364.667 159.217 365.357C159.111 365.436 158.999 365.505 158.883 365.562L158.867 365.57C155.729 367.098 152.599 368.772 149.489 370.463C146.379 372.161 143.281 373.893 140.199 375.654Z" fill="#661A47"/>
<path d="M157.672 363.343C157.672 363.343 139.716 364.402 135.603 394.734C135.603 394.734 172.277 383.344 157.672 363.343Z" fill="#48C75A"/>
<path d="M138.204 391.625C141.142 375.589 148.186 369.336 152.986 366.906C152.588 367.571 152.196 368.238 151.806 368.906C147.658 372.039 142.936 378.232 140.992 390.46C139.97 390.912 139.026 391.302 138.204 391.625Z" fill="#BFEBC5"/>
<path d="M156.685 365.552C153.092 366.345 142.078 370.48 138.204 391.625C143.986 389.349 155.748 383.845 158.469 375.871C159.603 372.548 159.02 369.161 156.685 365.552ZM135.603 396.767C135.12 396.767 134.645 396.603 134.265 396.291C133.718 395.845 133.444 395.156 133.538 394.466C137.827 362.837 156.743 361.361 157.546 361.313C158.261 361.269 158.951 361.592 159.368 362.163C163.063 367.224 164.09 372.27 162.419 377.162C158.12 389.745 137.126 396.393 136.234 396.67C136.027 396.735 135.814 396.767 135.603 396.767" fill="#661A47"/>
<path d="M147.533 376.555C148.853 374.098 150.21 371.659 151.614 369.234C153.026 366.808 154.458 364.405 156.1 362.015C156.745 361.075 158.049 360.823 159.012 361.454C159.975 362.084 160.233 363.356 159.587 364.295C159.491 364.435 159.37 364.569 159.248 364.676C157.218 366.466 155.236 368.449 153.289 370.442C151.342 372.445 149.424 374.486 147.533 376.555" fill="#661A47"/>
<path d="M157.523 363.253C157.523 363.253 140.781 356.83 146.478 326.744C146.478 326.744 177.749 348.636 157.523 363.253Z" fill="#48C75A"/>
<path d="M146.151 347.021C145.176 342.484 144.918 336.76 145.996 329.579C144.918 336.76 145.176 342.484 146.151 347.021Z" fill="#FFF1D4"/>
<path d="M153.142 360.242H153.142C151.487 358.68 149.646 356.405 148.164 353.176H148.164C149.646 356.405 151.487 358.68 153.142 360.242Z" fill="#BFEBC5"/>
<path d="M148.164 353.176H148.164C148.011 352.842 147.861 352.498 147.716 352.142V352.144C147.861 352.498 148.011 352.842 148.164 353.176Z" fill="#E9F8EB"/>
<path d="M147.716 352.144V352.142C147.098 350.632 146.561 348.932 146.151 347.021C146.561 348.932 147.098 350.632 147.716 352.144Z" fill="#CAAFBF"/>
<path d="M155.001 361.785C154.434 361.373 153.803 360.864 153.142 360.242H153.142C153.803 360.864 154.434 361.373 155.001 361.785Z" fill="#C9AFBF"/>
<path d="M155.86 362.366C155.596 362.199 155.308 362.005 155.001 361.785C155.308 362.005 155.596 362.199 155.86 362.366Z" fill="#CAAFBF"/>
<path d="M157.523 363.253C157.523 363.253 156.868 363.003 155.86 362.366C156.861 362.998 157.514 363.25 157.523 363.253Z" fill="#CAAFBF"/>
<path d="M157.523 363.253C157.514 363.25 156.861 362.998 155.86 362.366C155.596 362.199 155.308 362.005 155.001 361.785C154.434 361.373 153.803 360.864 153.142 360.242C151.487 358.68 149.646 356.405 148.164 353.176C148.011 352.842 147.862 352.498 147.716 352.144C147.098 350.632 146.561 348.932 146.151 347.021C145.176 342.484 144.918 336.76 145.996 329.579C146.134 328.659 146.294 327.714 146.478 326.744C146.478 326.744 146.478 326.744 146.478 326.744C146.478 326.744 146.478 326.744 146.478 326.744C146.514 326.77 148.604 328.238 151.342 330.651C146.236 351.819 154.894 360.316 158.232 362.716C158.001 362.896 157.769 363.075 157.523 363.253" fill="#BFEBC5"/>
<path d="M147.967 330.484C144.954 351.762 154.119 359.017 157.285 360.855C160.649 358.127 162.275 355.083 162.249 351.58C162.188 343.174 152.746 334.393 147.967 330.484ZM157.522 365.286C157.265 365.286 157.007 365.239 156.761 365.144C156.012 364.858 138.489 357.749 144.43 326.374C144.559 325.69 145.038 325.118 145.7 324.858C146.361 324.6 147.112 324.686 147.693 325.093C148.453 325.626 166.313 338.28 166.414 351.543C166.455 356.698 163.881 361.189 158.762 364.887C158.399 365.151 157.963 365.286 157.522 365.286" fill="#661A47"/>
<path d="M152.066 347.632C153.208 350.169 154.386 352.689 155.604 355.18C156.823 357.664 158.081 360.147 159.444 362.461C160.024 363.439 159.68 364.692 158.676 365.258C157.672 365.823 156.388 365.488 155.808 364.508C155.722 364.363 155.653 364.197 155.607 364.043C154.803 361.274 154.202 358.557 153.628 355.823C153.061 353.094 152.543 350.365 152.066 347.632" fill="#661A47"/>
<path d="M125.796 445.427C125.873 445.554 125.924 445.617 126.013 445.682C126.1 445.745 126.245 445.821 126.482 445.876C126.95 445.994 127.704 445.994 128.499 445.873C130.113 445.635 131.895 445.034 133.629 444.325C137.119 442.885 140.551 440.991 143.903 438.986C150.603 434.932 157.075 430.382 163.394 425.65C169.709 420.905 175.87 415.943 181.886 410.82C183.39 409.537 184.884 408.245 186.368 406.943C187.865 405.642 189.289 404.321 190.846 403.005C191.613 402.351 192.371 401.685 193.146 401.042L195.523 399.17L196.712 398.237L197.936 397.351L200.383 395.578C213.663 386.423 228.38 379.59 243.552 374.344C251.136 371.697 258.851 369.435 266.651 367.535C274.445 365.62 282.326 364.038 290.272 362.937C274.544 366.025 259.143 370.527 244.241 376.142C236.796 378.972 229.519 382.195 222.452 385.773C215.401 389.384 208.614 393.465 202.251 398.07L199.91 399.85L198.739 400.739L197.605 401.671L195.341 403.536C194.604 404.176 193.887 404.838 193.16 405.486C191.71 406.762 190.262 408.174 188.795 409.51C187.33 410.861 185.856 412.2 184.372 413.529C178.43 418.841 172.338 423.994 166.062 428.95C159.777 433.895 153.344 438.685 146.466 442.975C143.017 445.112 139.485 447.152 135.614 448.83C133.664 449.653 131.649 450.414 129.299 450.813C128.12 450.994 126.832 451.109 125.336 450.8C124.596 450.643 123.792 450.35 123.054 449.855C122.313 449.368 121.685 448.679 121.261 447.961C120.54 446.739 120.97 445.181 122.219 444.478C123.464 443.778 125.051 444.19 125.777 445.395L125.796 445.427" fill="#6C184E"/>
<path d="M427.946 328.338C426.274 328.338 424.869 327.556 424.537 326.303C424.115 324.713 425.58 322.967 427.81 322.403C428.283 322.285 428.753 322.226 429.204 322.226C430.876 322.226 432.281 323.01 432.613 324.262C433.035 325.852 431.57 327.598 429.34 328.161C428.866 328.281 428.396 328.338 427.946 328.338" fill="#D39718"/>
<path d="M408.34 319.849C405.623 319.849 403.34 318.578 402.799 316.541C402.112 313.956 404.494 311.118 408.12 310.203C408.889 310.007 409.653 309.916 410.384 309.916C413.102 309.916 415.384 311.186 415.925 313.222C416.612 315.808 414.23 318.646 410.606 319.562C409.837 319.757 409.073 319.849 408.34 319.849" fill="#D39718"/>
<path d="M365.203 290.823C363.306 290.823 361.657 289.944 361.074 288.437C360.263 286.343 361.82 283.83 364.552 282.823C365.319 282.541 366.096 282.407 366.836 282.407C368.734 282.407 370.382 283.286 370.966 284.793C371.776 286.887 370.219 289.4 367.487 290.407C366.721 290.689 365.943 290.823 365.203 290.823Z" fill="#D39718"/>
<path d="M415.559 240.141C414.247 240.141 413.106 239.533 412.704 238.491C412.143 237.043 413.219 235.305 415.108 234.61C415.638 234.415 416.176 234.322 416.688 234.322C417.999 234.322 419.139 234.93 419.543 235.972C420.104 237.42 419.026 239.156 417.137 239.853C416.607 240.048 416.069 240.141 415.559 240.141Z" fill="#D39718"/>
<path d="M422.08 277.569C420.59 277.569 419.294 276.879 418.836 275.695C418.199 274.05 419.424 272.076 421.568 271.286C422.171 271.064 422.781 270.958 423.363 270.958C424.852 270.958 426.148 271.649 426.605 272.832C427.242 274.477 426.019 276.452 423.873 277.241C423.272 277.463 422.662 277.569 422.08 277.569" fill="#D39718"/>
<path d="M379.52 265.407C378.291 265.407 377.222 264.838 376.846 263.862C376.321 262.506 377.329 260.878 379.099 260.225C379.594 260.042 380.098 259.956 380.578 259.956C381.807 259.956 382.875 260.525 383.252 261.502C383.777 262.857 382.768 264.485 381 265.137C380.502 265.32 380 265.407 379.52 265.407Z" fill="#D39718"/>
<path d="M320.936 311.872C320.009 311.872 319.172 311.525 318.667 310.841C317.709 309.546 318.304 307.532 319.993 306.342C320.791 305.781 321.69 305.505 322.517 305.505C323.444 305.505 324.281 305.852 324.786 306.536C325.744 307.831 325.149 309.845 323.46 311.033C322.662 311.596 321.763 311.872 320.936 311.872" fill="#D39718"/>
<path d="M329.36 276.655C328.441 276.655 327.611 276.311 327.109 275.632C326.159 274.348 326.748 272.35 328.425 271.169C329.215 270.613 330.108 270.339 330.928 270.339C331.847 270.339 332.677 270.682 333.179 271.362C334.129 272.646 333.539 274.644 331.863 275.823C331.072 276.381 330.18 276.655 329.36 276.655" fill="#D39718"/>
<path d="M214.551 370.657C213.33 370.657 212.229 370.2 211.562 369.3C210.302 367.593 211.084 364.939 213.309 363.375C214.359 362.636 215.543 362.27 216.633 362.27C217.854 362.27 218.957 362.727 219.622 363.628C220.884 365.333 220.102 367.987 217.875 369.554C216.825 370.293 215.641 370.657 214.551 370.657" fill="#D39718"/>
<path d="M217.134 344.247C216.103 344.247 215.171 343.861 214.608 343.1C213.542 341.656 214.202 339.414 216.084 338.09C216.972 337.465 217.973 337.157 218.896 337.157C219.928 337.157 220.858 337.544 221.421 338.305C222.487 339.747 221.827 341.991 219.945 343.314C219.057 343.938 218.056 344.247 217.134 344.247Z" fill="#D39718"/>
<path d="M177.275 393.468C176.597 393.468 175.983 393.215 175.613 392.713C174.913 391.765 175.347 390.29 176.584 389.418C177.169 389.007 177.828 388.805 178.433 388.805C179.112 388.805 179.724 389.059 180.095 389.56C180.796 390.509 180.362 391.984 179.123 392.854C178.54 393.265 177.881 393.468 177.275 393.468Z" fill="#D39718"/>
<path d="M218.056 297.177C217.025 297.177 216.093 296.791 215.53 296.028C214.464 294.586 215.126 292.344 217.008 291.02C217.894 290.395 218.895 290.086 219.818 290.086C220.85 290.086 221.782 290.472 222.344 291.235C223.409 292.676 222.749 294.919 220.867 296.243C219.979 296.868 218.978 297.177 218.056 297.177Z" fill="#D39718"/>
<path d="M254.48 272.512C253.133 272.512 251.916 272.008 251.181 271.012C249.789 269.129 250.653 266.199 253.109 264.471C254.269 263.654 255.577 263.251 256.78 263.251C258.127 263.251 259.345 263.757 260.08 264.751C261.472 266.634 260.609 269.564 258.151 271.292C256.992 272.109 255.685 272.512 254.48 272.512Z" fill="#D39718"/>
<path d="M464.988 332.784C459.728 361.988 528.057 366.717 528.057 366.717C528.057 366.717 571.334 267.874 501.511 183.512C431.686 99.1514 336.707 111.942 326.358 131.864C316.009 151.786 336.511 160.897 336.511 160.897C336.511 160.897 493.517 174.39 464.988 332.784" fill="#EB984E"/>
<path d="M535.248 329.743C533.63 328.449 531.873 327.203 530.004 326.002C536.432 292.364 537.813 236.851 496.403 186.818C457.313 139.59 409.755 125.123 375.993 125.123C375.043 125.123 374.1 125.134 373.175 125.157C374.667 125.755 375.634 126.604 375.828 127.663C376.369 130.618 370.775 134.064 363.336 135.361C361.411 135.697 359.552 135.856 357.844 135.856C352.945 135.856 349.286 134.551 348.884 132.361C348.617 130.897 349.857 129.311 352.08 127.928C342.446 130.462 335.833 134.448 333.572 138.803C330.36 144.985 330.345 150.046 331.748 154.047C329.959 152.342 328.218 150.119 327.243 147.377C325.733 143.134 326.332 138.358 329.021 133.182C331.568 128.278 342.222 122.496 360.282 120.638C364.034 120.252 367.958 120.049 372.041 120.049C409.317 120.049 459.145 136.962 499.187 185.343C534.599 228.129 539.84 274.775 537.999 306.37C537.506 314.828 536.495 322.69 535.248 329.743" fill="#F8DBC1"/>
<path d="M525.55 344.335C515.739 333.965 495.182 327.581 480.53 327.581C475.685 327.581 471.488 328.279 468.537 329.76C476.328 282.577 468.415 243.572 444.992 213.787C424.708 187.991 396.368 174.197 376.166 167.168C356.309 160.258 340.574 158.379 337.354 158.051C336.826 157.779 335.826 157.229 334.636 156.398C340.092 151.436 352.466 147.613 368.491 147.613C397.28 147.613 437.844 159.96 471.175 200.229C495.379 229.471 495.498 263.799 493.079 291.045C492.142 301.6 498.391 311.471 508.465 315.424C516.233 318.471 523.745 321.981 530.004 326.002C528.627 333.208 527.02 339.406 525.55 344.335" fill="#C5714E"/>
<path d="M530.182 351.447C529.226 348.912 527.63 346.534 525.55 344.335C527.02 339.406 528.627 333.208 530.004 326.002C531.873 327.203 533.63 328.449 535.248 329.743C533.738 338.297 531.879 345.659 530.182 351.447Z" fill="#CEA09E"/>
<path d="M464.988 332.785L467.927 333.289C467.178 337.457 468.15 341.155 470.902 344.594C482.036 358.504 517.015 362.741 526.099 363.62C528.604 357.156 536.319 335.221 537.999 306.37C539.84 274.775 534.599 228.129 499.187 185.343C454.76 131.666 398.296 116.725 360.282 120.638C342.222 122.496 331.568 128.278 329.021 133.182C326.332 138.358 325.733 143.135 327.243 147.377C329.473 153.645 335.708 157.204 337.354 158.051C340.574 158.379 356.309 160.258 376.166 167.168C396.368 174.197 424.708 187.991 444.992 213.787C468.996 244.311 476.713 284.517 467.927 333.289L464.988 332.785ZM528.058 369.631C527.987 369.631 527.916 369.628 527.845 369.623C525.923 369.49 480.582 366.156 466.196 348.18C462.397 343.434 461 338.084 462.047 332.28C470.525 285.204 463.205 246.544 440.285 217.372C403.156 170.116 336.913 163.857 336.248 163.8C335.912 163.77 335.583 163.685 335.274 163.549C334.859 163.364 325.059 158.916 321.621 149.345C319.534 143.536 320.232 137.211 323.695 130.547C327.756 122.726 341.537 116.708 359.656 114.842C399.239 110.77 457.901 126.186 503.833 181.681C540.5 225.984 545.886 274.239 543.948 306.919C541.85 342.276 531.253 366.834 530.802 367.861C530.331 368.94 529.247 369.631 528.058 369.631" fill="#6C184E"/>
<path d="M528.057 366.717C528.057 366.717 514.689 381.446 488.276 373.454C461.863 365.459 455.674 347.645 464.988 332.785C474.3 317.923 546.994 336.66 528.057 366.717Z" fill="#F7AF41"/>
<path d="M503.402 375.83C500.416 375.83 497.162 375.527 493.638 374.812C491.915 374.462 490.127 374.013 488.276 373.454C483.358 371.964 479.141 370.136 475.595 368.049C470.261 364.909 466.443 361.186 464.041 357.159C462.924 355.287 462.113 353.352 461.596 351.378C461.139 349.627 460.913 347.846 460.911 346.058C460.908 341.592 462.305 337.064 464.988 332.784C467.224 329.212 473.124 327.581 480.53 327.581C500.424 327.581 531.204 339.348 531.191 356.892C531.188 359.996 530.221 363.283 528.057 366.717C528.057 366.717 527.004 367.877 524.906 369.369C521.123 372.059 513.942 375.83 503.402 375.83" fill="#CD8145"/>
<path d="M528.057 366.717H528.065H528.057ZM480.524 330.495C473.857 330.495 469.046 331.893 467.534 334.304C463.694 340.432 462.864 346.78 465.136 352.659C468.168 360.502 476.7 366.898 489.161 370.671C512.036 377.592 524.071 366.55 525.665 364.947C528.785 359.861 529.038 355.114 526.443 350.443C520.106 339.037 498.237 330.928 481.787 330.511C481.359 330.5 480.937 330.495 480.524 330.495V330.495ZM503.497 378.766C498.754 378.766 493.386 378.049 487.392 376.235C469.116 370.704 462.163 361.479 459.548 354.714C456.645 347.2 457.672 338.872 462.441 331.264C466.045 325.509 475.033 324.516 481.942 324.686C499.983 325.145 524.134 334.061 531.692 347.665C535.332 354.216 534.954 361.331 530.6 368.242C530.51 368.386 530.406 368.521 530.292 368.647C529.822 369.166 520.857 378.766 503.497 378.766" fill="#6C184E"/>
<path d="M373.634 148.248C373.012 146.953 372.792 145.53 372.789 144.118C372.794 142.7 373.07 141.272 373.588 139.917C374.081 138.554 374.906 137.285 375.97 136.264C377.017 135.225 378.385 134.504 379.845 134.222C379.147 135.555 378.388 136.547 377.818 137.671C377.208 138.746 376.637 139.8 376.148 140.922C375.652 142.038 375.218 143.201 374.814 144.414C374.415 145.634 374.04 146.888 373.634 148.248" fill="#6D184E"/>
<path d="M381.552 153.349C381.124 151.457 381.222 149.501 381.539 147.589C381.881 145.676 382.553 143.804 383.512 142.066C384.441 140.312 385.764 138.735 387.34 137.488C387.747 137.189 388.139 136.878 388.563 136.611C389.007 136.365 389.452 136.13 389.901 135.913C390.337 135.673 390.825 135.523 391.305 135.375C391.791 135.24 392.269 135.107 392.76 135.021C391.421 136.518 390.074 137.69 388.986 139.118C387.852 140.476 386.81 141.872 385.917 143.387C385.013 144.89 384.22 146.478 383.508 148.141C382.787 149.803 382.172 151.527 381.552 153.349" fill="#6D184E"/>
<path d="M493.294 277.645C494.944 276.349 496.9 275.497 498.919 274.863C500.95 274.255 503.1 273.965 505.258 274C507.417 274.001 509.596 274.446 511.585 275.278C512.078 275.505 512.574 275.711 513.044 275.966C513.502 276.251 513.951 276.545 514.387 276.847C514.836 277.128 515.227 277.5 515.61 277.865C515.984 278.242 516.354 278.612 516.687 279.016C514.596 278.473 512.79 277.777 510.858 277.452C508.972 277.055 507.087 276.77 505.162 276.691C503.242 276.595 501.296 276.65 499.323 276.824C497.344 276.991 495.361 277.29 493.294 277.645Z" fill="#6D184E"/>
<path d="M489.977 291.118C492.561 289.813 495.417 289.077 498.313 288.663C501.217 288.251 504.2 288.277 507.136 288.712C507.864 288.849 508.607 288.924 509.326 289.115C510.043 289.312 510.765 289.495 511.475 289.708C512.188 289.922 512.868 290.235 513.554 290.511L514.578 290.943L515.552 291.482C516.188 291.859 516.837 292.21 517.446 292.618C518.036 293.063 518.601 293.534 519.171 293.986C519.453 294.216 519.741 294.435 519.995 294.697L520.737 295.499C521.217 296.044 521.69 296.584 522.123 297.15C519.505 295.839 517.16 294.429 514.541 293.548L513.596 293.162L512.617 292.861C511.962 292.673 511.332 292.42 510.671 292.254C510.006 292.103 509.35 291.925 508.69 291.759C508.034 291.583 507.351 291.502 506.682 291.367C503.991 290.9 501.241 290.677 498.452 290.644C495.661 290.629 492.85 290.793 489.977 291.118" fill="#6D184E"/>
<path d="M404.651 267.725C425.814 256.834 432.313 266.83 435.142 286.329C419.714 288.308 406.2 284.074 404.651 267.725Z" fill="#48C75A"/>
<path d="M407.035 268.981C407.602 273.632 409.556 277.383 412.857 280.145C417.529 284.057 425.091 286.009 433.867 285.639C431.992 277.222 429.189 268.875 423.489 266.295C419.514 264.494 414.122 265.373 407.035 268.981V268.981ZM431.644 290.106C422.671 290.106 415.076 287.82 409.911 283.497C405.321 279.655 402.791 274.394 402.392 267.857C402.34 267.006 402.792 266.204 403.556 265.793C412.634 260.893 419.777 259.748 425.394 262.29C433.466 265.944 436.622 276.437 438.828 287.233C438.954 287.846 438.807 288.483 438.424 288.984C438.041 289.487 437.458 289.805 436.82 289.864C435.052 290.026 433.324 290.106 431.644 290.106Z" fill="#661A47"/>
<path d="M404.196 265.561C406.576 264.904 409.071 265.062 411.321 265.6C413.59 266.143 415.651 267.124 417.528 268.27C419.407 269.422 421.105 270.78 422.633 272.273C424.149 273.776 425.512 275.413 426.576 277.213C423.146 274.791 419.572 272.824 415.884 271.474C414.046 270.801 412.177 270.345 410.373 270.052C408.558 269.764 406.812 269.731 405.107 269.888L405.024 269.895C403.777 270.01 402.673 269.115 402.555 267.898C402.452 266.817 403.162 265.846 404.196 265.561Z" fill="#651B47"/>
</svg>
